<svg width="100" height="100" viewBox="0 0 100 100" fill="none" xmlns="http://www.w3.org/2000/svg">
  <rect width="100" height="100" rx="8" fill="white" />
  <g clip-path="url(#clip0_301_127)">
    <path
      d="M89 74.5004C89 81.0724 71.5391 86.4 50 86.4C28.4609 86.4 11 81.0724 11 74.5004C11 67.9285 28.4609 62.6009 50 62.6009C71.5391 62.6009 89 67.9285 89 74.5004Z"
      fill="#F3F6F9" />
    <path
      d="M21.0142 40.3755C18.2126 43.2605 18.2126 47.9379 21.0142 50.8229L31.0937 61.2023C31.4643 60.5896 31.8386 59.9787 32.2167 59.3696C34.6367 55.4717 37.1848 51.6186 39.9506 47.8841C39.8259 47.8852 39.7012 47.8861 39.5766 47.8867C37.0715 47.9001 34.3805 47.8772 31.6358 46.9388C30.7508 46.6362 30.2816 45.6819 30.5878 44.8073C30.894 43.9327 31.8597 43.469 32.7447 43.7716C34.8805 44.5018 37.0363 44.5488 39.5584 44.5354C40.5657 44.53 41.5696 44.5102 42.5683 44.4725C42.9916 43.9406 43.4201 43.4117 43.8541 42.886C46.602 39.5574 49.6583 36.1204 53.4791 33.3877C53.9998 33.0153 55.5807 31.8933 57.2687 31.22C58.0996 30.8886 59.1351 30.591 60.169 30.6678C61.3198 30.7533 62.4404 31.3133 63.0968 32.5511C64.1324 34.5042 63.9864 36.6023 63.3851 38.37C62.786 40.1311 61.6909 41.7188 60.5458 42.8548C57.6206 45.7571 53.4613 46.6989 49.6623 47.2297C47.8866 47.4778 46.0912 47.6432 44.2904 47.7462C40.9718 52.0309 37.9619 56.5243 35.1074 61.1222C34.5741 61.9812 34.0484 62.8442 33.5299 63.711L44.9147 75.4347C47.7163 78.3197 52.2585 78.3197 55.0601 75.4347L78.9606 50.8229C81.7622 47.9379 81.7622 43.2605 78.9606 40.3755L55.0601 15.7637C52.2585 12.8788 47.7163 12.8788 44.9147 15.7637L21.0142 40.3755Z"
      fill="url(#paint0_linear_301_127)" />
    <path
      d="M49.1875 43.9113C48.5261 44.0037 47.86 44.0841 47.1899 44.1537C49.6895 41.1771 52.3207 38.3533 55.4674 36.1027C55.9888 35.7298 57.2733 34.8322 58.5379 34.3279C59.1832 34.0705 59.6458 33.9898 59.9148 34.0098C60.0494 34.0198 60.0546 34.0302 60.0812 34.0837C60.0846 34.0906 60.0884 34.0982 60.0929 34.1066C60.5707 35.0077 60.579 36.1015 60.1706 37.3021C59.7599 38.5093 58.9731 39.6662 58.1431 40.4897C56.0709 42.5456 52.9278 43.3887 49.1875 43.9113Z"
      fill="url(#paint1_linear_301_127)" />
  </g>
  <defs>
    <linearGradient id="paint0_linear_301_127" x1="32.9645" y1="28.0696" x2="68.0086" y2="62.1009"
      gradientUnits="userSpaceOnUse">
      <stop stop-color="#4E37C5" />
      <stop offset="1" stop-color="#7B61FF" />
    </linearGradient>
    <linearGradient id="paint1_linear_301_127" x1="32.9645" y1="28.0696" x2="68.0086" y2="62.1009"
      gradientUnits="userSpaceOnUse">
      <stop stop-color="#4E37C5" />
      <stop offset="1" stop-color="#7B61FF" />
    </linearGradient>
    <clipPath id="clip0_301_127">
      <rect width="78" height="72.8" fill="white" transform="translate(11 13.6)" />
    </clipPath>
  </defs>
</svg>