<svg width="45" height="42" viewBox="0 0 45 42" fill="none" xmlns="http://www.w3.org/2000/svg">
  <g clip-path="url(#clip0_301_9)">
    <path
      d="M45 35.1349C45 38.9264 34.9264 42 22.5 42C10.0736 42 0 38.9264 0 35.1349C0 31.3434 10.0736 28.2697 22.5 28.2697C34.9264 28.2697 45 31.3434 45 35.1349Z"
      fill="#F3F6F9" />
    <path
      d="M5.77744 15.4474C4.16114 17.1118 4.16114 19.8103 5.77744 21.4747L11.5925 27.4629C11.8063 27.1094 12.0223 26.7569 12.2404 26.4055C13.6366 24.1567 15.1066 21.9338 16.7023 19.7793C16.6303 19.7799 16.5584 19.7804 16.4865 19.7808C15.0412 19.7885 13.4888 19.7753 11.9053 19.2339C11.3947 19.0593 11.124 18.5088 11.3007 18.0042C11.4773 17.4996 12.0344 17.2321 12.545 17.4067C13.7772 17.828 15.021 17.8551 16.476 17.8473C17.0571 17.8442 17.6363 17.8328 18.2125 17.8111C18.4567 17.5042 18.7039 17.1991 18.9543 16.8958C20.5396 14.9754 22.3029 12.9926 24.5072 11.416C24.8076 11.2012 25.7196 10.5538 26.6935 10.1654C27.1728 9.9742 27.7702 9.8025 28.3667 9.84681C29.0306 9.89614 29.6772 10.2192 30.0558 10.9333C30.6533 12.0601 30.5691 13.2706 30.2222 14.2904C29.8765 15.3064 29.2448 16.2224 28.5841 16.8778C26.8965 18.5521 24.4969 19.0955 22.3051 19.4017C21.2807 19.5449 20.2449 19.6403 19.206 19.6997C17.2914 22.1717 15.5549 24.764 13.9081 27.4166C13.6004 27.9122 13.2971 28.4101 12.998 28.9102L19.5662 35.6738C21.1825 37.3383 23.803 37.3383 25.4193 35.6738L39.208 21.4747C40.8243 19.8103 40.8243 17.1118 39.208 15.4474L25.4193 1.2483C23.803 -0.416101 21.1825 -0.416101 19.5662 1.2483L5.77744 15.4474Z"
      fill="url(#paint0_linear_301_9)" />
    <path
      d="M22.0313 17.4873C21.6497 17.5406 21.2654 17.587 20.8788 17.6271C22.3209 15.9099 23.8389 14.2807 25.6543 12.9823C25.9551 12.7672 26.6961 12.2494 27.4257 11.9584C27.798 11.8099 28.0649 11.7633 28.2201 11.7749C28.2977 11.7806 28.3007 11.7867 28.3161 11.8175C28.318 11.8215 28.3202 11.8259 28.3228 11.8307C28.5985 12.3506 28.6033 12.9816 28.3676 13.6743C28.1307 14.3707 27.6768 15.0382 27.1979 15.5133C26.0025 16.6994 24.1891 17.1858 22.0313 17.4873Z"
      fill="url(#paint1_linear_301_9)" />
  </g>
  <defs>
    <linearGradient id="paint0_linear_301_9" x1="12.6718" y1="8.34786" x2="32.8895" y2="27.9813"
      gradientUnits="userSpaceOnUse">
      <stop stop-color="#4E37C5" />
      <stop offset="1" stop-color="#7B61FF" />
    </linearGradient>
    <linearGradient id="paint1_linear_301_9" x1="12.6718" y1="8.34786" x2="32.8895" y2="27.9813"
      gradientUnits="userSpaceOnUse">
      <stop stop-color="#4E37C5" />
      <stop offset="1" stop-color="#7B61FF" />
    </linearGradient>
    <clipPath id="clip0_301_9">
      <rect width="45" height="42" fill="white" />
    </clipPath>
  </defs>
</svg>