<svg width="136" height="26" viewBox="0 0 136 26" fill="none" xmlns="http://www.w3.org/2000/svg">
  <g clip-path="url(#clip0_301_10)">
    <path
      d="M8.9263 0.938596C11.5462 0.938596 13.483 1.52339 14.7368 2.69298C15.9906 3.8443 16.6175 5.34284 16.6175 7.1886C16.6175 8.35819 16.3462 9.4364 15.8035 10.4232C15.2608 11.3918 14.4468 12.1776 13.3614 12.7807C12.276 13.3655 10.9474 13.6579 9.37542 13.6579H4.71578V20.2368H0V0.938596H8.9263ZM8.67367 9.92982C9.72162 9.92982 10.5169 9.71053 11.0596 9.27193C11.621 8.81506 11.9017 8.19371 11.9017 7.40789C11.9017 6.54898 11.6304 5.91849 11.0877 5.51645C10.5637 5.09613 9.75905 4.88597 8.67367 4.88597H4.71578V9.92982H8.67367Z"
      fill="black" />
    <path d="M22.9122 0.5V20.2368H18.421V0.5H22.9122Z" fill="black" />
    <path
      d="M24.4855 16.3717C24.4855 14.8366 25.0188 13.7036 26.0855 12.9726C27.1521 12.2416 28.565 11.8213 30.3241 11.7116C30.9229 11.6751 31.344 11.6568 31.5872 11.6568C32.7849 11.602 33.627 11.5106 34.1135 11.3827C34.6001 11.2548 34.834 10.9532 34.8153 10.4781C34.7966 9.96637 34.6001 9.52778 34.2258 9.16228C33.8516 8.79678 33.2059 8.61403 32.289 8.61403C31.3533 8.61403 30.6609 8.78765 30.2118 9.13487C29.7814 9.48209 29.5007 9.96637 29.3697 10.5877H24.9346C25.1779 8.79678 26.0106 7.47186 27.4328 6.61294C28.8738 5.75402 30.5299 5.32456 32.4013 5.32456C34.4784 5.32456 36.1439 5.81798 37.3977 6.80482C38.6703 7.77339 39.3065 9.5826 39.3065 12.2325V20.2368H34.8153V19.4967C34.8153 19.0947 34.9182 18.6926 35.1241 18.2906C35.1428 18.2357 35.1989 18.117 35.2925 17.9342C35.386 17.7515 35.4328 17.5961 35.4328 17.4682C35.4328 17.3586 35.386 17.2855 35.2925 17.2489L35.1241 17.1941C34.9744 17.1941 34.8714 17.258 34.8153 17.386C34.7592 17.5139 34.7217 17.587 34.703 17.6053C34.2165 18.5556 33.5428 19.3048 32.682 19.8531C31.8399 20.4013 30.8293 20.6754 29.6504 20.6754C28.6773 20.6754 27.7884 20.4836 26.9837 20.0998C26.1978 19.716 25.5802 19.2043 25.1311 18.5647C24.7007 17.9068 24.4855 17.1758 24.4855 16.3717ZM34.8153 13.2193C34.4785 13.5482 34.0761 13.7675 33.6083 13.8772C33.1592 13.9686 32.2703 14.0965 30.9416 14.261C30.3615 14.3158 29.8843 14.4894 29.51 14.7818C29.1545 15.0742 28.9767 15.5037 28.9767 16.0702C28.9767 16.5636 29.1545 16.9474 29.51 17.2215C29.8843 17.4956 30.3428 17.6327 30.8855 17.6327C31.372 17.6327 31.9147 17.4865 32.5135 17.1941C33.1311 16.9017 33.6644 16.4265 34.1135 15.7686C34.5814 15.1107 34.8153 14.261 34.8153 13.2193Z"
      fill="black" />
    <path
      d="M47.2271 14.3432C47.3768 14.8366 47.4517 15.3483 47.4517 15.8783C47.4517 16.2621 47.6014 16.4539 47.9008 16.4539C48.0692 16.4539 48.1815 16.4083 48.2376 16.3169C48.2938 16.2072 48.3312 16.061 48.3499 15.8783C48.3686 15.7869 48.3873 15.5859 48.4061 15.2752C48.4435 14.9645 48.509 14.6539 48.6025 14.3432L51.1569 5.76316H55.9289L49.6411 21.909C49.1359 23.2065 48.4996 24.1294 47.7324 24.6776C46.9651 25.2259 45.9359 25.5 44.6447 25.5H41.0517V21.9912H43.1569C43.8868 21.9912 44.3827 21.9273 44.6447 21.7993C44.9066 21.6897 45.1406 21.3882 45.3464 20.8947L45.5148 20.4836L39.7605 5.76316H44.5324L47.2271 14.3432Z"
      fill="black" />
    <path
      d="M59.9238 15.193C59.9425 15.8326 60.1671 16.3626 60.5975 16.7829C61.0466 17.1849 61.7671 17.386 62.7589 17.386C63.6758 17.386 64.3402 17.2672 64.7519 17.0296C65.1636 16.792 65.3694 16.4722 65.3694 16.0702C65.3694 15.6681 65.07 15.3757 64.4712 15.193C63.891 14.992 62.9086 14.8183 61.5238 14.6721C59.2595 14.4163 57.7624 13.8589 57.0326 13C56.3028 12.1228 55.9378 11.136 55.9378 10.0395C55.9378 9.19883 56.1998 8.42215 56.7238 7.70943C57.2478 6.99671 58.0244 6.42105 59.0536 5.98246C60.0829 5.54386 61.3086 5.32456 62.7308 5.32456C64.6209 5.32456 66.1741 5.75402 67.3905 6.61294C68.6255 7.45358 69.2992 8.70541 69.4115 10.3684H64.9764C64.9203 9.19883 64.1437 8.61403 62.6466 8.61403C61.8794 8.61403 61.318 8.72368 60.9624 8.94298C60.6068 9.16228 60.4291 9.46382 60.4291 9.84759C60.4291 10.14 60.6068 10.3867 60.9624 10.5877C61.3367 10.7887 62.0758 10.9349 63.1799 11.0263C65.3507 11.2273 67.0068 11.7025 68.1484 12.4518C69.2899 13.1827 69.8606 14.2975 69.8606 15.7961C69.8606 16.7281 69.5706 17.5687 68.9905 18.318C68.4103 19.049 67.5776 19.6246 66.4922 20.045C65.4068 20.4653 64.125 20.6754 62.6466 20.6754C60.401 20.6754 58.67 20.2003 57.4536 19.25C56.2373 18.2814 55.5823 16.9291 55.4887 15.193H59.9238Z"
      fill="black" />
    <path
      d="M75.9275 6.20175C75.9275 6.6038 75.8246 7.00585 75.6187 7.40789C75.5813 7.48099 75.5065 7.61806 75.3942 7.81908C75.2819 8.0201 75.2257 8.18458 75.2257 8.3125C75.2257 8.40387 75.2819 8.47697 75.3942 8.5318C75.4316 8.55007 75.4877 8.55921 75.5626 8.55921C75.731 8.55921 75.8901 8.41301 76.0398 8.12061C77.069 6.25658 78.6222 5.32456 80.6994 5.32456C82.0281 5.32456 83.1789 5.66265 84.152 6.33882C85.1251 7.01498 85.8643 7.93787 86.3696 9.10746C86.8936 10.2588 87.1556 11.5563 87.1556 13C87.1556 14.4437 86.8936 15.7504 86.3696 16.92C85.8643 18.0713 85.1251 18.985 84.152 19.6612C83.1789 20.3374 82.0281 20.6754 80.6994 20.6754C78.6035 20.6754 77.0503 19.7343 76.0398 17.852C75.9649 17.7058 75.8901 17.5961 75.8152 17.523C75.7404 17.4499 75.6468 17.4317 75.5345 17.4682C75.3848 17.523 75.31 17.6235 75.31 17.7697C75.31 17.9159 75.4035 18.1718 75.5907 18.5373C75.8152 18.9211 75.9275 19.314 75.9275 19.716V25.5H71.4363V5.76316H75.9275V6.20175ZM79.4082 16.9474C80.4749 16.9474 81.2795 16.5727 81.8222 15.8235C82.3836 15.0742 82.6643 14.133 82.6643 13C82.6643 11.867 82.3836 10.9258 81.8222 10.1765C81.2795 9.42727 80.4749 9.05263 79.4082 9.05263C78.379 9.05263 77.5369 9.4364 76.8819 10.2039C76.2456 10.9715 75.9275 11.9035 75.9275 13C75.9275 14.0965 76.2456 15.0285 76.8819 15.7961C77.5369 16.5636 78.379 16.9474 79.4082 16.9474Z"
      fill="black" />
    <path
      d="M88.0545 16.3717C88.0545 14.8366 88.5878 13.7036 89.6544 12.9726C90.7211 12.2416 92.134 11.8213 93.893 11.7116C94.4919 11.6751 94.9129 11.6568 95.1562 11.6568C96.3539 11.602 97.196 11.5106 97.6825 11.3827C98.1691 11.2548 98.403 10.9532 98.3843 10.4781C98.3656 9.96637 98.1691 9.52778 97.7948 9.16228C97.4205 8.79678 96.7749 8.61403 95.8579 8.61403C94.9223 8.61403 94.2299 8.78765 93.7808 9.13487C93.3503 9.48209 93.0697 9.96637 92.9387 10.5877H88.5036C88.7469 8.79678 89.5796 7.47186 91.0018 6.61294C92.4427 5.75402 94.0989 5.32456 95.9702 5.32456C98.0474 5.32456 99.7129 5.81798 100.967 6.80482C102.239 7.77339 102.875 9.5826 102.875 12.2325V20.2368H98.3843V19.4967C98.3843 19.0947 98.4872 18.6926 98.693 18.2906C98.7117 18.2357 98.7679 18.117 98.8615 17.9342C98.955 17.7515 99.0018 17.5961 99.0018 17.4682C99.0018 17.3586 98.955 17.2855 98.8615 17.2489L98.693 17.1941C98.5433 17.1941 98.4404 17.258 98.3843 17.386C98.3281 17.5139 98.2907 17.587 98.272 17.6053C97.7854 18.5556 97.1118 19.3048 96.2509 19.8531C95.4088 20.4013 94.3983 20.6754 93.2194 20.6754C92.2463 20.6754 91.3574 20.4836 90.5527 20.0998C89.7667 19.716 89.1492 19.2043 88.7001 18.5647C88.2697 17.9068 88.0545 17.1758 88.0545 16.3717ZM98.3843 13.2193C98.0474 13.5482 97.6451 13.7675 97.1773 13.8772C96.7281 13.9686 95.8392 14.0965 94.5106 14.261C93.9305 14.3158 93.4533 14.4894 93.079 14.7818C92.7235 15.0742 92.5457 15.5037 92.5457 16.0702C92.5457 16.5636 92.7235 16.9474 93.079 17.2215C93.4533 17.4956 93.9118 17.6327 94.4544 17.6327C94.941 17.6327 95.4837 17.4865 96.0825 17.1941C96.7001 16.9017 97.2334 16.4265 97.6825 15.7686C98.1503 15.1107 98.3843 14.261 98.3843 13.2193Z"
      fill="black" />
    <path
      d="M104.447 13C104.447 11.5746 104.765 10.2862 105.401 9.13487C106.038 7.96528 106.955 7.0424 108.152 6.36623C109.35 5.67178 110.772 5.32456 112.419 5.32456C113.86 5.32456 115.114 5.61696 116.18 6.20175C117.266 6.76827 118.108 7.52668 118.707 8.47697C119.305 9.40899 119.642 10.4141 119.717 11.4923L115.282 11.5197C115.151 10.807 114.833 10.2222 114.328 9.76535C113.841 9.2902 113.214 9.05263 112.447 9.05263C111.399 9.05263 110.548 9.4364 109.893 10.2039C109.256 10.9715 108.938 11.9035 108.938 13C108.938 14.0965 109.256 15.0285 109.893 15.7961C110.548 16.5636 111.399 16.9474 112.447 16.9474C113.214 16.9474 113.841 16.7098 114.328 16.2346C114.833 15.7595 115.151 15.1656 115.282 14.4529L119.717 14.4803C119.642 15.5585 119.305 16.5727 118.707 17.523C118.108 18.4733 117.266 19.2409 116.18 19.8257C115.114 20.3922 113.86 20.6754 112.419 20.6754C110.81 20.6754 109.397 20.3374 108.18 19.6612C106.983 18.9667 106.056 18.0439 105.401 16.8925C104.765 15.723 104.447 14.4254 104.447 13Z"
      fill="black" />
    <path
      d="M136 12.5614C136 13.1645 135.972 13.6762 135.916 14.0965H125.165C125.315 15.0285 125.698 15.7778 126.316 16.3443C126.933 16.8925 127.701 17.1667 128.618 17.1667C129.291 17.1667 129.853 17.0113 130.302 16.7007C130.751 16.39 131.069 15.9605 131.256 15.4123H135.719C135.401 16.9108 134.634 18.1626 133.418 19.1678C132.201 20.1729 130.611 20.6754 128.646 20.6754C126.98 20.6754 125.549 20.3374 124.351 19.6612C123.153 18.985 122.246 18.0713 121.628 16.92C121.029 15.7504 120.73 14.4437 120.73 13C120.73 11.5015 121.039 10.1765 121.656 9.02522C122.274 7.85563 123.172 6.95102 124.351 6.3114C125.53 5.65351 126.933 5.32456 128.561 5.32456C129.871 5.32456 131.088 5.58955 132.211 6.11952C133.352 6.64949 134.269 7.46272 134.961 8.55921C135.654 9.63743 136 10.9715 136 12.5614ZM128.646 8.72368C126.793 8.72368 125.67 9.63743 125.277 11.4649H131.593C131.518 10.5877 131.219 9.91155 130.695 9.4364C130.171 8.96126 129.488 8.72368 128.646 8.72368Z"
      fill="black" />
  </g>
  <defs>
    <clipPath id="clip0_301_10">
      <rect width="136" height="25" fill="white" transform="translate(0 0.5)" />
    </clipPath>
  </defs>
</svg>