
<svg width="869" height="453" viewBox="0 0 869 453" fill="none" xmlns="http://www.w3.org/2000/svg">
<path d="M219.032 331.816C204.248 331.816 191.192 329.32 179.864 324.328C168.536 319.144 159.608 311.848 153.08 302.44C146.552 292.84 143.192 281.224 143 267.592H181.88C182.264 277 185.624 284.968 191.96 291.496C198.488 297.832 207.416 301 218.744 301C228.536 301 236.312 298.696 242.072 294.088C247.832 289.288 250.712 282.952 250.712 275.08C250.712 266.824 248.12 260.392 242.936 255.784C237.944 251.176 231.224 247.432 222.776 244.552C214.328 241.672 205.304 238.6 195.704 235.336C180.152 229.96 168.248 223.048 159.992 214.6C151.928 206.152 147.896 194.92 147.896 180.904C147.704 169 150.488 158.824 156.248 150.376C162.2 141.736 170.264 135.112 180.44 130.504C190.616 125.704 202.328 123.304 215.576 123.304C229.016 123.304 240.824 125.704 251 130.504C261.368 135.304 269.432 142.024 275.192 150.664C281.144 159.304 284.312 169.576 284.696 181.48H245.24C245.048 174.376 242.264 168.136 236.888 162.76C231.704 157.192 224.408 154.408 215 154.408C206.936 154.216 200.12 156.232 194.552 160.456C189.176 164.488 186.488 170.44 186.488 178.312C186.488 185.032 188.6 190.408 192.824 194.44C197.048 198.28 202.808 201.544 210.104 204.232C217.4 206.92 225.752 209.8 235.16 212.872C245.144 216.328 254.264 220.36 262.52 224.968C270.776 229.576 277.4 235.72 282.392 243.4C287.384 250.888 289.88 260.584 289.88 272.488C289.88 283.048 287.192 292.84 281.816 301.864C276.44 310.888 268.472 318.184 257.912 323.752C247.352 329.128 234.392 331.816 219.032 331.816Z" fill="black"/>
<path d="M366.108 328.36C351.132 328.36 339.132 324.712 330.108 317.416C321.084 310.12 316.572 297.16 316.572 278.536V216.328H292.092V185.512H316.572L320.892 147.208H353.436V185.512H392.028V216.328H353.436V278.824C353.436 285.736 354.876 290.536 357.756 293.224C360.828 295.72 366.012 296.968 373.308 296.968H391.164V328.36H366.108Z" fill="black"/>
<path d="M404.958 328.36V185.512H437.79L441.246 212.296C446.43 203.08 453.439 195.784 462.271 190.408C471.295 184.84 481.855 182.056 493.951 182.056V220.936H483.583C475.519 220.936 468.319 222.184 461.983 224.68C455.647 227.176 450.654 231.496 447.007 237.64C443.55 243.784 441.823 252.328 441.823 263.272V328.36H404.958Z" fill="black"/>
<path d="M520.298 163.336C513.578 163.336 508.01 161.32 503.594 157.288C499.37 153.256 497.258 148.168 497.258 142.024C497.258 135.88 499.37 130.888 503.594 127.048C508.01 123.016 513.578 121 520.298 121C527.018 121 532.49 123.016 536.714 127.048C541.13 130.888 543.338 135.88 543.338 142.024C543.338 148.168 541.13 153.256 536.714 157.288C532.49 161.32 527.018 163.336 520.298 163.336ZM501.866 328.36V185.512H538.73V328.36H501.866Z" fill="black"/>
<path d="M624.151 331.816C610.711 331.816 598.711 328.552 588.151 322.024C577.591 315.496 569.239 306.568 563.095 295.24C556.951 283.912 553.879 271.048 553.879 256.648C553.879 242.248 556.951 229.48 563.095 218.344C569.239 207.016 577.591 198.184 588.151 191.848C598.711 185.32 610.711 182.056 624.151 182.056C634.903 182.056 644.311 184.072 652.375 188.104C660.439 192.136 666.967 197.8 671.959 205.096V121H708.823V328.36H675.991L671.959 307.912C667.351 314.248 661.207 319.816 653.527 324.616C646.039 329.416 636.247 331.816 624.151 331.816ZM631.927 299.56C643.831 299.56 653.527 295.624 661.015 287.752C668.695 279.688 672.535 269.416 672.535 256.936C672.535 244.456 668.695 234.28 661.015 226.408C653.527 218.344 643.831 214.312 631.927 214.312C620.215 214.312 610.519 218.248 602.839 226.12C595.159 233.992 591.319 244.168 591.319 256.648C591.319 269.128 595.159 279.4 602.839 287.464C610.519 295.528 620.215 299.56 631.927 299.56Z" fill="black"/>
<path d="M797.05 331.816C782.65 331.816 769.882 328.744 758.746 322.6C747.61 316.456 738.874 307.816 732.538 296.68C726.202 285.544 723.034 272.68 723.034 258.088C723.034 243.304 726.106 230.152 732.25 218.632C738.586 207.112 747.226 198.184 758.17 191.848C769.306 185.32 782.362 182.056 797.338 182.056C811.354 182.056 823.738 185.128 834.49 191.272C845.242 197.416 853.594 205.864 859.546 216.616C865.69 227.176 868.762 238.984 868.762 252.04C868.762 254.152 868.666 256.36 868.474 258.664C868.474 260.968 868.378 263.368 868.186 265.864H759.61C760.378 277 764.218 285.736 771.13 292.072C778.234 298.408 786.778 301.576 796.762 301.576C804.25 301.576 810.49 299.944 815.482 296.68C820.666 293.224 824.506 288.808 827.002 283.432H864.442C861.754 292.456 857.242 300.712 850.906 308.2C844.762 315.496 837.082 321.256 827.866 325.48C818.842 329.704 808.57 331.816 797.05 331.816ZM797.338 212.008C788.314 212.008 780.346 214.6 773.434 219.784C766.522 224.776 762.106 232.456 760.186 242.824H831.322C830.746 233.416 827.29 225.928 820.954 220.36C814.618 214.792 806.746 212.008 797.338 212.008Z" fill="black"/>
</svg>
