
<svg width="453" height="453" viewBox="0 0 453 453" fill="none" xmlns="http://www.w3.org/2000/svg">
<path d="M168.314 168.103C170.267 166.15 173.433 166.15 175.386 168.103L181.895 174.612C201.421 194.138 201.421 225.796 181.895 245.322L95.9355 331.281C93.9829 333.234 90.8171 333.234 88.8644 331.281L50.5355 292.953C48.5829 291 48.5829 287.834 50.5355 285.881L168.314 168.103Z" fill="url(#paint0_linear_2_8)"/>
<path d="M181.559 161.936C179.607 159.983 179.607 156.817 181.559 154.864L219.888 116.536C221.841 114.583 225.007 114.583 226.959 116.536L401.488 291.064C403.441 293.017 403.441 296.183 401.488 298.136L382.324 317.3C369.787 329.837 349.461 329.837 336.924 317.3L181.559 161.936Z" fill="#FF5823"/>
<defs>
<linearGradient id="paint0_linear_2_8" x1="194.55" y1="187.267" x2="69.7" y2="312.117" gradientUnits="userSpaceOnUse">
<stop stop-color="#BF360C"/>
<stop offset="1" stop-color="#FF5722"/>
</linearGradient>
</defs>
</svg>
